# xmcd
#
# Track frame offsets:
#	150
#	11933
#	24915
#	36698
#	49369
#	59330
#	71434
#	83454
#	92968
#	102294
#	113188
#	124340
#	137017
#	148344
#	155989
#
# Disc length: 2213 seconds
#
# Revision: 0
# Processed by: cddbd v1.5.2PL0 Copyright (c) Steve Scherf et al.
# Submitted via: audiograbber 1.83.01
#
DISCID=e008a30f
DTITLE=Dolly and Lynn Anderson - Dolly and Lynn Anderson - Together
DYEAR=1900
DGENRE=Country
TTITLE0=Dolly Parton - Making Believe
TTITLE1=Lynn Anderson - Rose Garden
TTITLE2=Dolly Parton - Letter To Heaven
TTITLE3=Lynn Anderson - Love Of The Common People
TTITLE4=Dolly Parton - Release Me
TTITLE5=Dolly Parton - Two Little Orphans
TTITLE6=Lynn Anderson - Crying
TTITLE7=Dolly Parton - Girl Left Alone
TTITLE8=Lynn Anderson - No Another Time
TTITLE9=Dolly Parton - Wasn't God Who Made Honky Tonk Angels
TTITLE10=Lynn Anderson - I've Been Everywhere
TTITLE11=Dolly Parton - Little Blossom
TTITLE12=Lynn Anderson - Lie A Little
TTITLE13=Dolly Parton - Puppy Love
TTITLE14=Lynn Anderson - Promises Promises
EXTD=
EXTT0=
EXTT1=
EXTT2=
EXTT3=
EXTT4=
EXTT5=
EXTT6=
EXTT7=
EXTT8=
EXTT9=
EXTT10=
EXTT11=
EXTT12=
EXTT13=
EXTT14=
PLAYORDER=
